<mxfile host="app.diagrams.net" modified="2022-07-15T14:32:09.220Z" agent="5.0 (Windows NT 10.0; Win64; x64) AppleWebKit/537.36 (KHTML, like Gecko) Chrome/102.0.5005.115 Safari/537.36 OPR/88.0.4412.75" etag="36xUwa0xDtCeb6i_GRTB" version="20.1.1" type="github">
  <diagram id="ltwP41coHP8r5JwDXrCO" name="Page-1">
    <mxGraphModel dx="1381" dy="764" grid="1" gridSize="10" guides="1" tooltips="1" connect="1" arrows="1" fold="1" page="1" pageScale="1" pageWidth="827" pageHeight="1169" math="0" shadow="0">
      <root>
        <mxCell id="0" />
        <mxCell id="1" parent="0" />
        <mxCell id="uAPlqVYa4u8AjHozSUe_-1" value="Curso" style="swimlane;fontStyle=0;childLayout=stackLayout;horizontal=1;startSize=26;horizontalStack=0;resizeParent=1;resizeParentMax=0;resizeLast=0;collapsible=1;marginBottom=0;align=center;fontSize=14;" vertex="1" parent="1">
          <mxGeometry x="100" y="130" width="160" height="86" as="geometry" />
        </mxCell>
        <mxCell id="uAPlqVYa4u8AjHozSUe_-2" value="id_curso: integer" style="text;strokeColor=none;fillColor=none;spacingLeft=4;spacingRight=4;overflow=hidden;rotatable=0;points=[[0,0.5],[1,0.5]];portConstraint=eastwest;fontSize=12;" vertex="1" parent="uAPlqVYa4u8AjHozSUe_-1">
          <mxGeometry y="26" width="160" height="30" as="geometry" />
        </mxCell>
        <mxCell id="uAPlqVYa4u8AjHozSUe_-3" value="nome: varchar(30)" style="text;strokeColor=none;fillColor=none;spacingLeft=4;spacingRight=4;overflow=hidden;rotatable=0;points=[[0,0.5],[1,0.5]];portConstraint=eastwest;fontSize=12;" vertex="1" parent="uAPlqVYa4u8AjHozSUe_-1">
          <mxGeometry y="56" width="160" height="30" as="geometry" />
        </mxCell>
        <mxCell id="uAPlqVYa4u8AjHozSUe_-5" value="Professores" style="swimlane;fontStyle=0;childLayout=stackLayout;horizontal=1;startSize=26;horizontalStack=0;resizeParent=1;resizeParentMax=0;resizeLast=0;collapsible=1;marginBottom=0;align=center;fontSize=14;" vertex="1" parent="1">
          <mxGeometry x="420" y="130" width="160" height="296" as="geometry" />
        </mxCell>
        <mxCell id="uAPlqVYa4u8AjHozSUe_-6" value="id_prof: integer" style="text;strokeColor=none;fillColor=none;spacingLeft=4;spacingRight=4;overflow=hidden;rotatable=0;points=[[0,0.5],[1,0.5]];portConstraint=eastwest;fontSize=12;" vertex="1" parent="uAPlqVYa4u8AjHozSUe_-5">
          <mxGeometry y="26" width="160" height="30" as="geometry" />
        </mxCell>
        <mxCell id="uAPlqVYa4u8AjHozSUe_-7" value="nome: varchar(30)" style="text;strokeColor=none;fillColor=none;spacingLeft=4;spacingRight=4;overflow=hidden;rotatable=0;points=[[0,0.5],[1,0.5]];portConstraint=eastwest;fontSize=12;" vertex="1" parent="uAPlqVYa4u8AjHozSUe_-5">
          <mxGeometry y="56" width="160" height="30" as="geometry" />
        </mxCell>
        <mxCell id="uAPlqVYa4u8AjHozSUe_-10" value="data_nasc: date" style="text;strokeColor=none;fillColor=none;spacingLeft=4;spacingRight=4;overflow=hidden;rotatable=0;points=[[0,0.5],[1,0.5]];portConstraint=eastwest;fontSize=12;" vertex="1" parent="uAPlqVYa4u8AjHozSUe_-5">
          <mxGeometry y="86" width="160" height="30" as="geometry" />
        </mxCell>
        <mxCell id="uAPlqVYa4u8AjHozSUe_-11" value="salário: integer" style="text;strokeColor=none;fillColor=none;spacingLeft=4;spacingRight=4;overflow=hidden;rotatable=0;points=[[0,0.5],[1,0.5]];portConstraint=eastwest;fontSize=12;" vertex="1" parent="uAPlqVYa4u8AjHozSUe_-5">
          <mxGeometry y="116" width="160" height="30" as="geometry" />
        </mxCell>
        <mxCell id="uAPlqVYa4u8AjHozSUe_-12" value="titulação" style="text;spacingLeft=4;spacingRight=4;overflow=hidden;rotatable=0;points=[[0,0.5],[1,0.5]];portConstraint=eastwest;fontSize=12;fillColor=#f5f5f5;fontColor=#333333;strokeColor=#666666;" vertex="1" parent="uAPlqVYa4u8AjHozSUe_-5">
          <mxGeometry y="146" width="160" height="30" as="geometry" />
        </mxCell>
        <mxCell id="uAPlqVYa4u8AjHozSUe_-37" value="doutor" style="text;strokeColor=none;fillColor=none;spacingLeft=4;spacingRight=4;overflow=hidden;rotatable=0;points=[[0,0.5],[1,0.5]];portConstraint=eastwest;fontSize=12;" vertex="1" parent="uAPlqVYa4u8AjHozSUe_-5">
          <mxGeometry y="176" width="160" height="30" as="geometry" />
        </mxCell>
        <mxCell id="uAPlqVYa4u8AjHozSUe_-38" value="mestre" style="text;strokeColor=none;fillColor=none;spacingLeft=4;spacingRight=4;overflow=hidden;rotatable=0;points=[[0,0.5],[1,0.5]];portConstraint=eastwest;fontSize=12;" vertex="1" parent="uAPlqVYa4u8AjHozSUe_-5">
          <mxGeometry y="206" width="160" height="30" as="geometry" />
        </mxCell>
        <mxCell id="uAPlqVYa4u8AjHozSUe_-39" value="especialista" style="text;strokeColor=none;fillColor=none;spacingLeft=4;spacingRight=4;overflow=hidden;rotatable=0;points=[[0,0.5],[1,0.5]];portConstraint=eastwest;fontSize=12;" vertex="1" parent="uAPlqVYa4u8AjHozSUe_-5">
          <mxGeometry y="236" width="160" height="30" as="geometry" />
        </mxCell>
        <mxCell id="uAPlqVYa4u8AjHozSUe_-36" value="graduado" style="text;strokeColor=none;fillColor=none;spacingLeft=4;spacingRight=4;overflow=hidden;rotatable=0;points=[[0,0.5],[1,0.5]];portConstraint=eastwest;fontSize=12;" vertex="1" parent="uAPlqVYa4u8AjHozSUe_-5">
          <mxGeometry y="266" width="160" height="30" as="geometry" />
        </mxCell>
        <mxCell id="uAPlqVYa4u8AjHozSUe_-13" value="Turma" style="swimlane;fontStyle=0;childLayout=stackLayout;horizontal=1;startSize=26;horizontalStack=0;resizeParent=1;resizeParentMax=0;resizeLast=0;collapsible=1;marginBottom=0;align=center;fontSize=14;" vertex="1" parent="1">
          <mxGeometry x="420" y="510" width="160" height="86" as="geometry" />
        </mxCell>
        <mxCell id="uAPlqVYa4u8AjHozSUe_-14" value="id_turma: integer" style="text;strokeColor=none;fillColor=none;spacingLeft=4;spacingRight=4;overflow=hidden;rotatable=0;points=[[0,0.5],[1,0.5]];portConstraint=eastwest;fontSize=12;" vertex="1" parent="uAPlqVYa4u8AjHozSUe_-13">
          <mxGeometry y="26" width="160" height="30" as="geometry" />
        </mxCell>
        <mxCell id="uAPlqVYa4u8AjHozSUe_-15" value="idiomas" style="text;strokeColor=none;fillColor=none;spacingLeft=4;spacingRight=4;overflow=hidden;rotatable=0;points=[[0,0.5],[1,0.5]];portConstraint=eastwest;fontSize=12;" vertex="1" parent="uAPlqVYa4u8AjHozSUe_-13">
          <mxGeometry y="56" width="160" height="30" as="geometry" />
        </mxCell>
        <mxCell id="uAPlqVYa4u8AjHozSUe_-17" value="Alunos" style="swimlane;fontStyle=0;childLayout=stackLayout;horizontal=1;startSize=26;horizontalStack=0;resizeParent=1;resizeParentMax=0;resizeLast=0;collapsible=1;marginBottom=0;align=center;fontSize=14;" vertex="1" parent="1">
          <mxGeometry x="100" y="430" width="160" height="266" as="geometry" />
        </mxCell>
        <mxCell id="uAPlqVYa4u8AjHozSUe_-18" value="matricula: integer" style="text;strokeColor=none;fillColor=none;spacingLeft=4;spacingRight=4;overflow=hidden;rotatable=0;points=[[0,0.5],[1,0.5]];portConstraint=eastwest;fontSize=12;" vertex="1" parent="uAPlqVYa4u8AjHozSUe_-17">
          <mxGeometry y="26" width="160" height="30" as="geometry" />
        </mxCell>
        <mxCell id="uAPlqVYa4u8AjHozSUe_-19" value="nome: varchar(30)" style="text;strokeColor=none;fillColor=none;spacingLeft=4;spacingRight=4;overflow=hidden;rotatable=0;points=[[0,0.5],[1,0.5]];portConstraint=eastwest;fontSize=12;" vertex="1" parent="uAPlqVYa4u8AjHozSUe_-17">
          <mxGeometry y="56" width="160" height="30" as="geometry" />
        </mxCell>
        <mxCell id="uAPlqVYa4u8AjHozSUe_-21" value="salário: integer" style="text;strokeColor=none;fillColor=none;spacingLeft=4;spacingRight=4;overflow=hidden;rotatable=0;points=[[0,0.5],[1,0.5]];portConstraint=eastwest;fontSize=12;" vertex="1" parent="uAPlqVYa4u8AjHozSUe_-17">
          <mxGeometry y="86" width="160" height="30" as="geometry" />
        </mxCell>
        <mxCell id="uAPlqVYa4u8AjHozSUe_-22" value="titulação" style="text;strokeColor=none;fillColor=none;spacingLeft=4;spacingRight=4;overflow=hidden;rotatable=0;points=[[0,0.5],[1,0.5]];portConstraint=eastwest;fontSize=12;" vertex="1" parent="uAPlqVYa4u8AjHozSUe_-17">
          <mxGeometry y="116" width="160" height="30" as="geometry" />
        </mxCell>
        <mxCell id="uAPlqVYa4u8AjHozSUe_-20" value="endereço" style="text;strokeColor=#666666;fillColor=#f5f5f5;spacingLeft=4;spacingRight=4;overflow=hidden;rotatable=0;points=[[0,0.5],[1,0.5]];portConstraint=eastwest;fontSize=12;rounded=0;glass=0;shadow=0;fontColor=#333333;" vertex="1" parent="uAPlqVYa4u8AjHozSUe_-17">
          <mxGeometry y="146" width="160" height="30" as="geometry" />
        </mxCell>
        <mxCell id="uAPlqVYa4u8AjHozSUe_-34" value="rua: varchar (30)" style="text;strokeColor=none;fillColor=none;spacingLeft=4;spacingRight=4;overflow=hidden;rotatable=0;points=[[0,0.5],[1,0.5]];portConstraint=eastwest;fontSize=12;" vertex="1" parent="uAPlqVYa4u8AjHozSUe_-17">
          <mxGeometry y="176" width="160" height="30" as="geometry" />
        </mxCell>
        <mxCell id="uAPlqVYa4u8AjHozSUe_-35" value="número: integer (5)" style="text;strokeColor=none;fillColor=none;spacingLeft=4;spacingRight=4;overflow=hidden;rotatable=0;points=[[0,0.5],[1,0.5]];portConstraint=eastwest;fontSize=12;" vertex="1" parent="uAPlqVYa4u8AjHozSUe_-17">
          <mxGeometry y="206" width="160" height="30" as="geometry" />
        </mxCell>
        <mxCell id="uAPlqVYa4u8AjHozSUe_-33" value="bairro: varchar (30)" style="text;strokeColor=none;fillColor=none;spacingLeft=4;spacingRight=4;overflow=hidden;rotatable=0;points=[[0,0.5],[1,0.5]];portConstraint=eastwest;fontSize=12;" vertex="1" parent="uAPlqVYa4u8AjHozSUe_-17">
          <mxGeometry y="236" width="160" height="30" as="geometry" />
        </mxCell>
        <mxCell id="uAPlqVYa4u8AjHozSUe_-23" value="Notas" style="swimlane;fontStyle=0;childLayout=stackLayout;horizontal=1;startSize=26;horizontalStack=0;resizeParent=1;resizeParentMax=0;resizeLast=0;collapsible=1;marginBottom=0;align=center;fontSize=14;" vertex="1" parent="1">
          <mxGeometry x="93" y="820" width="160" height="176" as="geometry" />
        </mxCell>
        <mxCell id="uAPlqVYa4u8AjHozSUe_-24" value="id_notas: integer" style="text;strokeColor=none;fillColor=none;spacingLeft=4;spacingRight=4;overflow=hidden;rotatable=0;points=[[0,0.5],[1,0.5]];portConstraint=eastwest;fontSize=12;" vertex="1" parent="uAPlqVYa4u8AjHozSUe_-23">
          <mxGeometry y="26" width="160" height="30" as="geometry" />
        </mxCell>
        <mxCell id="uAPlqVYa4u8AjHozSUe_-25" value="av.1: integer" style="text;strokeColor=none;fillColor=none;spacingLeft=4;spacingRight=4;overflow=hidden;rotatable=0;points=[[0,0.5],[1,0.5]];portConstraint=eastwest;fontSize=12;" vertex="1" parent="uAPlqVYa4u8AjHozSUe_-23">
          <mxGeometry y="56" width="160" height="30" as="geometry" />
        </mxCell>
        <mxCell id="uAPlqVYa4u8AjHozSUe_-26" value="av.2: integer " style="text;strokeColor=none;fillColor=none;spacingLeft=4;spacingRight=4;overflow=hidden;rotatable=0;points=[[0,0.5],[1,0.5]];portConstraint=eastwest;fontSize=12;" vertex="1" parent="uAPlqVYa4u8AjHozSUe_-23">
          <mxGeometry y="86" width="160" height="30" as="geometry" />
        </mxCell>
        <mxCell id="uAPlqVYa4u8AjHozSUe_-27" value="av.3: integer" style="text;strokeColor=none;fillColor=none;spacingLeft=4;spacingRight=4;overflow=hidden;rotatable=0;points=[[0,0.5],[1,0.5]];portConstraint=eastwest;fontSize=12;" vertex="1" parent="uAPlqVYa4u8AjHozSUe_-23">
          <mxGeometry y="116" width="160" height="30" as="geometry" />
        </mxCell>
        <mxCell id="uAPlqVYa4u8AjHozSUe_-28" value="media: integer" style="text;strokeColor=none;fillColor=none;spacingLeft=4;spacingRight=4;overflow=hidden;rotatable=0;points=[[0,0.5],[1,0.5]];portConstraint=eastwest;fontSize=12;" vertex="1" parent="uAPlqVYa4u8AjHozSUe_-23">
          <mxGeometry y="146" width="160" height="30" as="geometry" />
        </mxCell>
        <mxCell id="uAPlqVYa4u8AjHozSUe_-29" value="" style="endArrow=none;html=1;rounded=0;exitX=1;exitY=0.5;exitDx=0;exitDy=0;entryX=0;entryY=0.5;entryDx=0;entryDy=0;" edge="1" parent="1" source="uAPlqVYa4u8AjHozSUe_-2" target="uAPlqVYa4u8AjHozSUe_-6">
          <mxGeometry relative="1" as="geometry">
            <mxPoint x="330" y="490" as="sourcePoint" />
            <mxPoint x="490" y="490" as="targetPoint" />
          </mxGeometry>
        </mxCell>
        <mxCell id="uAPlqVYa4u8AjHozSUe_-30" value="" style="endArrow=none;html=1;rounded=0;entryX=0.5;entryY=0;entryDx=0;entryDy=0;exitX=0.488;exitY=1.067;exitDx=0;exitDy=0;exitPerimeter=0;" edge="1" parent="1" source="uAPlqVYa4u8AjHozSUe_-36" target="uAPlqVYa4u8AjHozSUe_-13">
          <mxGeometry relative="1" as="geometry">
            <mxPoint x="570" y="480" as="sourcePoint" />
            <mxPoint x="430" y="181" as="targetPoint" />
          </mxGeometry>
        </mxCell>
        <mxCell id="uAPlqVYa4u8AjHozSUe_-31" value="" style="endArrow=none;html=1;rounded=0;exitX=1.019;exitY=0.1;exitDx=0;exitDy=0;entryX=0;entryY=0.5;entryDx=0;entryDy=0;exitPerimeter=0;" edge="1" parent="1" source="uAPlqVYa4u8AjHozSUe_-22" target="uAPlqVYa4u8AjHozSUe_-14">
          <mxGeometry relative="1" as="geometry">
            <mxPoint x="280" y="191" as="sourcePoint" />
            <mxPoint x="440" y="191" as="targetPoint" />
          </mxGeometry>
        </mxCell>
        <mxCell id="uAPlqVYa4u8AjHozSUe_-32" value="" style="endArrow=none;html=1;rounded=0;exitX=0.456;exitY=1;exitDx=0;exitDy=0;exitPerimeter=0;" edge="1" parent="1" source="uAPlqVYa4u8AjHozSUe_-33" target="uAPlqVYa4u8AjHozSUe_-23">
          <mxGeometry relative="1" as="geometry">
            <mxPoint x="179.5" y="730" as="sourcePoint" />
            <mxPoint x="179.5" y="820" as="targetPoint" />
          </mxGeometry>
        </mxCell>
      </root>
    </mxGraphModel>
  </diagram>
</mxfile>
